<svg xmlns="http://www.w3.org/2000/svg" version="1.1" xmlns:xlink="http://www.w3.org/1999/xlink" width="100" height="100" x="0" y="0" viewBox="0 0 64 64" style="enable-background:new 0 0 512 512" xml:space="preserve" class=""><g><path d="M17.982 42.97H34.82c-.924-.812-1.086-2.268-1.188-3.421a16.373 16.373 0 0 1-.714-.292l-1.077.835a3.7 3.7 0 0 1-4.882-.433L23.4 36.086a3.665 3.665 0 0 1-.412-4.851l.845-1.077c-.11-.231-.2-.463-.3-.7l-1.358-.171a3.692 3.692 0 0 1-3.141-3.724v-5.087a3.677 3.677 0 0 1 3.161-3.724l1.338-.161c.091-.242.192-.483.292-.715-.2-.279-.638-.8-.845-1.087a3.335 3.335 0 0 1-.7-1.711 16.3 16.3 0 0 0-4.3 28.192zM38.554 44.782H17.982c.009.2-.023 3.394.02 3.483h20.542c-.005-.109.042-3.265.01-3.483zM23.417 56.175v1.108A2.718 2.718 0 0 0 26.134 60h3.623a2.719 2.719 0 0 0 2.718-2.717v-.846a9.028 9.028 0 0 0 5.807-6.361H18.263a9 9 0 0 0 5.154 6.099zM8.309 17.329c.307.127 2.327 1.475 2.651 1.391a.912.912 0 0 0 .454-1.691l-2.2-1.269a.906.906 0 0 0-.906 1.569zM8.342 26.34H5.8a.906.906 0 0 0 0 1.812h2.542a.906.906 0 0 0 0-1.812zM10.337 35.939l-2.2 1.269a.912.912 0 0 0 .455 1.692.893.893 0 0 0 .452-.122l2.2-1.269a.906.906 0 0 0-.906-1.569z" fill="#55e6a5" opacity="1" data-original="#000000" class="" style="
    color: #55e6a5;
"></path><path d="m57.707 18.755-2.6-.322a15.556 15.556 0 0 0-1.167-2.808l1.61-2.064a1.667 1.667 0 0 0-.241-2.194l-3.591-3.593a1.644 1.644 0 0 0-2.194-.241l-2.063 1.6a15.808 15.808 0 0 0-2.808-1.157l-.322-2.6A1.666 1.666 0 0 0 42.61 4h-5.093A1.666 1.666 0 0 0 35.8 5.379l-.322 2.6a15.808 15.808 0 0 0-2.808 1.157l-2.053-1.6a1.656 1.656 0 0 0-2.2.241l-3.583 3.583a1.674 1.674 0 0 0-.252 2.2l.473.614 1.137 1.45a15.556 15.556 0 0 0-1.167 2.808l-2.6.322a1.666 1.666 0 0 0-1.379 1.721v5.083a1.686 1.686 0 0 0 1.374 1.732l2.6.322a15.828 15.828 0 0 0 1.167 2.8l-1.61 2.063a1.667 1.667 0 0 0 .242 2.194l3.593 3.593a1.646 1.646 0 0 0 2.188.238l2.063-1.6a15.883 15.883 0 0 0 2.808 1.157l.322 2.607a1.693 1.693 0 0 0 1.721 1.379h5.096a1.674 1.674 0 0 0 1.721-1.379l.322-2.607a15.883 15.883 0 0 0 2.808-1.157l2.063 1.6a1.654 1.654 0 0 0 2.194-.232l3.582-3.591a1.671 1.671 0 0 0 .252-2.2l-1.61-2.063a15.828 15.828 0 0 0 1.167-2.8l2.6-.322a1.686 1.686 0 0 0 1.379-1.731v-5.085a1.666 1.666 0 0 0-1.381-1.721zm-10.96 13.577c-7.282 5.477-18.28-.059-18.157-9.31a11.481 11.481 0 0 1 11.474-11.473c11.144.026 15.636 14.407 6.683 20.783z" fill="#55e6a5" opacity="1" data-original="#000000" class=""></path><path d="M35.907 25.589c-1.33 1.289-.923 3.944-.976 5.606a9.674 9.674 0 0 0 10.266 0v-3.01a3.9 3.9 0 0 0-.977-2.6 7.519 7.519 0 0 1-8.313.004z" fill="#55e6a5" opacity="1" data-original="#000000" class=""></path><path d="M30.4 23.022a9.629 9.629 0 0 0 2.718 6.7c-.155-2.265.264-4.6 2.174-6.038a.909.909 0 0 1 1.157.03 5.563 5.563 0 0 0 7.237 0 .909.909 0 0 1 1.147-.03 5.663 5.663 0 0 1 2.174 4.5v1.54a9.629 9.629 0 0 0 2.718-6.7C49.2 10.205 30.928 10.207 30.4 23.022zm9.663.836c-5.686-.173-5.675-8.43 0-8.606a4.3 4.3 0 0 1 .001 8.606z" fill="#55e6a5" opacity="1" data-original="#000000" class=""></path><path d="M37.578 19.56a2.491 2.491 0 0 0 4.982 0 2.491 2.491 0 0 0-4.982 0z" fill="#55e6a5" opacity="1" data-original="#000000" class=""></path></g></svg>