<svg xmlns="http://www.w3.org/2000/svg" version="1.1" xmlns:xlink="http://www.w3.org/1999/xlink" width="100" height="100" x="0" y="0" viewBox="0 0 512 512" style="enable-background:new 0 0 512 512" xml:space="preserve" class=""><g><path d="m226.734 264.053 47.678-47.678c-10.722-6.844-23.436-10.829-37.072-10.829-38.109 0-69.113 31.004-69.113 69.113s31.004 69.113 69.113 69.113 69.113-31.004 69.113-69.113c0-13.635-3.985-26.35-10.829-37.072l-47.678 47.678z" fill="#55e6a5" opacity="1" data-original="#55e6a5" class="" style="
    color: #55e6a5;
"></path><path d="M474.682 274.659c0-40.762-10.413-80.624-30.183-115.901l-59.098 8.098c22.101 30.271 35.167 67.537 35.167 107.803 0 101.032-82.195 183.228-183.228 183.228S54.113 375.691 54.113 274.659 136.309 91.432 237.341 91.432c40.266 0 77.532 13.066 107.803 35.167l8.098-59.098c-35.277-19.77-75.139-30.183-115.901-30.183-63.396 0-122.998 24.688-167.825 69.516C24.688 151.661 0 211.263 0 274.659s24.688 122.998 69.516 167.825C114.343 487.313 173.944 512 237.341 512s122.998-24.688 167.825-69.516c44.828-44.827 69.516-104.428 69.516-167.825z" fill="#55e6a5" opacity="1" data-original="#000000" class=""></path><path d="M237.341 121.432c-84.49 0-153.228 68.737-153.228 153.228s68.737 153.228 153.228 153.228 153.228-68.737 153.228-153.228c0-36.855-13.082-70.71-34.842-97.173l-38.533 38.533c12.1 16.432 19.261 36.714 19.261 58.64 0 54.651-44.462 99.113-99.113 99.113s-99.113-44.462-99.113-99.113 44.462-99.113 99.113-99.113c21.926 0 42.207 7.161 58.64 19.261l38.533-38.533c-26.464-21.762-60.319-34.843-97.174-34.843zM450.307 0l-66.671 66.671-9.797 71.49 71.49-9.797L512 61.693l-45.002-16.691z" fill="#55e6a5" opacity="1" data-original="#000000" class=""></path></g></svg>