<svg xmlns="http://www.w3.org/2000/svg" version="1.1" xmlns:xlink="http://www.w3.org/1999/xlink" width="80" height="80" x="0" y="0" viewBox="0 0 511.871 511.871" style="enable-background:new 0 0 512 512" xml:space="preserve" class=""><g><path d="M477.802 119.338H344.681a8.533 8.533 0 0 0 0 17.066h133.121c4.704 0 8.533 3.829 8.533 8.533v42.667H349.377a8.533 8.533 0 0 0 0 17.066h136.958v281.6c0 4.704-3.829 8.533-8.533 8.533H34.069c-4.704 0-8.533-3.829-8.533-8.533v-281.6h136.958a8.533 8.533 0 0 0 0-17.066H25.535v-42.667c0-4.704 3.829-8.533 8.533-8.533H167.19a8.533 8.533 0 0 0 0-17.066H34.069c-14.117 0-25.6 11.483-25.6 25.6v341.333c0 14.117 11.483 25.6 25.6 25.6h443.733c14.117 0 25.6-11.483 25.6-25.6V144.938c0-14.117-11.483-25.6-25.6-25.6z" fill="#000000" opacity="1" data-original="#000000" class=""></path><path d="M45.077 155.946c-1.538 1.621-2.475 3.754-2.475 6.058s.937 4.438 2.475 6.058c1.621 1.533 3.754 2.475 6.058 2.475 2.217 0 4.438-.942 6.058-2.475 1.533-1.621 2.475-3.842 2.475-6.058 0-2.221-.942-4.438-2.475-6.058-3.245-3.158-8.962-3.158-12.116 0zM79.21 155.946c-1.538 1.621-2.475 3.838-2.475 6.058 0 2.217.938 4.438 2.475 6.058 1.621 1.533 3.838 2.475 6.058 2.475 2.217 0 4.438-.942 6.058-2.475 1.533-1.621 2.475-3.842 2.475-6.058 0-2.221-.942-4.438-2.475-6.058-3.245-3.158-8.961-3.158-12.116 0zM113.344 155.946c-1.538 1.621-2.475 3.838-2.475 6.058 0 2.304.937 4.438 2.475 5.971 1.621 1.621 3.754 2.563 6.058 2.563s4.438-.942 6.058-2.475c1.533-1.621 2.475-3.754 2.475-6.058 0-2.221-.942-4.438-2.475-6.058-3.158-3.159-8.962-3.159-12.116-.001zM129.569 293.517a8.546 8.546 0 0 0-1.025 8.192l17.067 42.667a8.536 8.536 0 0 0 5.417 4.983 8.53 8.53 0 0 0 7.279-1.079l47.646-32.122a420.772 420.772 0 0 0 7.567 19.764c.005.012.016.02.021.032a8.527 8.527 0 0 0 1.851 2.762c.368.366.845.565 1.269.855.483.333.911.74 1.459.97a8.538 8.538 0 0 0 3.26.658c.011 0 .02.006.032.006h3.65l-10.892 21.783a8.535 8.535 0 0 0 7.633 12.35h68.267a8.535 8.535 0 0 0 7.633-12.35l-10.892-21.783h1.125c.44 0 .819-.186 1.241-.251.429.066.853.255 1.28.255a8.542 8.542 0 0 0 7.896-5.288 422.456 422.456 0 0 0 7.568-19.763l47.644 32.121a8.53 8.53 0 0 0 7.279 1.079 8.54 8.54 0 0 0 5.417-4.983l17.067-42.667a8.546 8.546 0 0 0-1.025-8.192l-52.29-71.886c4.386-34.377 4.112-73.794-7.852-114.255-11.146-37.667-31.292-72.887-59.88-104.675-3.242-3.6-9.45-3.6-12.692 0-28.596 31.8-48.742 67.021-59.879 104.675-11.965 40.461-12.238 79.879-7.852 114.255l-52.289 71.887zm106.041 64.754 8.533-17.067h23.583l8.533 17.067H235.61zm90.59-112.868 39.527 54.343-11.387 28.471-42.65-28.752c4.832-14.507 10.345-32.917 14.51-54.062zM206.077 112.217c9.571-32.363 26.325-62.875 49.858-90.817 23.525 27.933 40.279 58.446 49.858 90.817 11.626 39.31 11.626 77.229 7.064 110.296-.028.156-.043.305-.063.462-5.143 36.873-15.949 67.662-22.876 87.246a391.731 391.731 0 0 1-5.221 13.917h-57.524a388.104 388.104 0 0 1-5.221-13.921c-6.927-19.582-17.733-50.369-22.876-87.242-.02-.157-.034-.305-.062-.461-4.563-33.068-4.563-70.987 7.063-110.297zm-5.896 187.247-42.65 28.753-11.388-28.471 39.527-54.343c4.166 21.144 9.68 39.555 14.511 54.061zM247.402 418.004v25.6a8.533 8.533 0 0 0 17.066 0v-25.6a8.533 8.533 0 0 0-17.066 0zM213.269 400.938v25.6a8.533 8.533 0 0 0 17.066 0v-25.6a8.533 8.533 0 0 0-17.066 0zM290.069 392.404a8.533 8.533 0 0 0-8.533 8.533v25.6a8.533 8.533 0 0 0 17.066 0v-25.6a8.534 8.534 0 0 0-8.533-8.533z" fill="#000000" opacity="1" data-original="#000000" class=""></path><path d="M255.935 196.138c23.525 0 42.667-19.142 42.667-42.667 0-23.525-19.142-42.667-42.667-42.667s-42.667 19.142-42.667 42.667c.001 23.525 19.142 42.667 42.667 42.667zm0-68.267c14.117 0 25.6 11.483 25.6 25.6s-11.483 25.6-25.6 25.6-25.6-11.483-25.6-25.6 11.484-25.6 25.6-25.6z" fill="#000000" opacity="1" data-original="#000000" class=""></path></g></svg>